PathFileType	4	(X/Y/Z)	TVC_39_BWA_04_walk_RCNL2025.trc
DataRate	CameraRate	NumFrames	NumMarkers	Units	OrigDataRate	OrigDataStartFrame	OrigNumFrames
100	100	8	27	mm	100	1111	1269
Frame#	Time	R_Shoulder			L_Shoulder			C7			J_Notch			R_Elbow			L_Elbow			R_Wrist			L_Wrist			R_Asis			L_Asis			R_Psis			L_Psis			Sacral			Thoracic			Sternum			R_Thigh_Lateral			R_Knee_Lateral			R_Shank_Lateral			R_Ankle_Lateral			R_Heel			R_Toe			L_Thigh_Lateral			L_Knee_Lateral			L_Shank_Lateral			L_Ankle_Lateral			L_Heel			L_Toe		
		X1	Y1	Z1	X2	Y2	Z2	X3	Y3	Z3	X4	Y4	Z4	X5	Y5	Z5	X6	Y6	Z6	X7	Y7	Z7	X8	Y8	Z8	X9	Y9	Z9	X10	Y10	Z10	X11	Y11	Z11	X12	Y12	Z12	X13	Y13	Z13	X14	Y14	Z14	X15	Y15	Z15	X16	Y16	Z16	X17	Y17	Z17	X18	Y18	Z18	X19	Y19	Z19	X20	Y20	Z20	X21	Y21	Z21	X22	Y22	Z22	X23	Y23	Z23	X24	Y24	Z24	X25	Y25	Z25	X26	Y26	Z26	X27	Y27	Z27
1111	11.10000000	744.246765	1437.169067	499.766693	803.442078	1497.129639	147.644455	737.356873	1526.119995	322.905304	888.556641	1405.053223	326.958557	746.219421	1110.950806	592.253662	773.839294	1207.346924	-22.829262	854.098877	881.824829	556.293762	891.445190	972.583832	0.805540	825.147461	928.159363	403.788605	841.359375	929.192932	112.103943	631.459595	959.303650	301.915833	636.711731	948.053955	193.825180	634.085663	953.678802	247.870506	645.617126	1206.660400	259.820282	932.262817	1241.838867	317.891449	790.812866	731.995117	480.502625	826.760620	467.942169	404.936066	746.160583	290.678589	451.421631	706.637451	77.246353	343.338501	667.095093	64.749870	286.117706	844.996765	47.278042	364.170166	850.232910	690.730591	12.100986	957.240540	488.223053	70.662125	878.942261	375.522491	18.827290	725.846313	163.878204	103.282501	675.606812	172.558594	157.089127	832.016907	67.750702	113.359482
1112	11.11000000	747.056213	1436.950195	499.858521	805.750671	1496.483643	147.537384	739.969971	1525.779053	322.900177	891.028137	1404.486572	326.848816	748.857361	1110.776001	592.518677	775.430115	1206.299561	-22.266428	855.867584	881.202545	556.935791	892.589539	971.299011	1.133533	827.021362	928.056458	404.382690	842.977844	928.437500	112.584404	633.249146	959.061279	302.651825	638.406677	947.593750	194.591309	635.827911	953.327515	248.621567	647.700928	1206.410522	260.174988	934.485657	1241.220215	317.852570	792.859741	731.884583	481.061707	827.751282	467.593933	405.365021	746.813660	290.389343	451.663727	706.706665	77.208603	343.368622	667.099854	64.802673	286.159363	845.002625	47.276344	364.176300	851.968323	690.546875	12.662833	961.918213	489.575714	71.497742	885.648376	375.432373	19.664831	741.471802	157.831161	104.484100	690.931152	164.054306	158.813049	851.362061	66.273285	112.954018
1113	11.12000000	749.848328	1436.801880	499.827393	808.070496	1495.846436	147.296112	742.583374	1525.473145	322.753387	893.503845	1403.965332	326.631104	751.495911	1110.684448	592.693420	777.028320	1205.221313	-21.760923	857.680603	880.681244	557.494385	893.657684	969.941162	1.424814	828.915588	928.009460	404.961029	844.694702	927.701660	113.057930	635.083984	958.842957	303.318054	640.181274	947.155701	195.293304	637.632629	952.999329	249.305679	649.822083	1206.176514	260.431610	936.724915	1240.650635	317.747925	794.894836	731.817932	481.593628	828.635376	467.285004	405.762421	747.360107	290.132477	451.894135	706.760559	77.167442	343.395569	667.098694	64.846283	286.199493	845.002502	47.274956	364.187805	853.702026	690.315186	13.233069	966.184204	490.714325	72.469612	892.182739	375.079376	20.549379	757.444336	151.485229	105.624199	706.705750	155.268265	160.435547	870.980530	64.734276	112.587265
1114	11.13000000	752.621033	1436.725220	499.672913	810.404541	1495.222412	146.923157	745.197998	1525.203613	322.465820	895.985046	1403.491699	326.307404	754.128540	1110.677002	592.779541	778.635193	1204.124023	-21.320238	859.541321	880.266327	557.967102	894.657715	968.526459	1.680325	830.829651	928.016418	405.524689	846.515259	926.985596	113.527473	636.965698	958.649719	303.912537	642.038635	946.740417	195.928818	639.502167	952.695068	249.920677	651.983093	1205.959473	260.589111	938.982910	1240.132690	317.579437	796.911560	731.792419	482.102631	829.413757	467.014557	406.132263	747.801758	289.906891	452.115692	706.798645	77.123505	343.419769	667.092590	64.880287	286.238312	844.995911	47.274044	364.205170	855.435669	690.030945	13.809587	970.060364	491.627533	73.570229	898.594727	374.458282	21.470490	773.681519	144.979843	106.673393	722.862000	146.363556	161.925385	890.724060	63.232857	112.245628
1115	11.14000000	755.372742	1436.720215	499.395081	812.756165	1494.613770	146.421097	747.815002	1524.970947	322.038666	898.473328	1403.066772	325.880035	756.749268	1110.753296	592.778931	780.252502	1203.017334	-20.951797	861.452728	879.961578	558.351837	895.598633	967.069794	1.900440	832.762817	928.074341	406.074768	848.444153	926.288391	113.995995	638.895386	958.481567	304.433228	643.980957	946.347717	196.495392	641.438171	952.414642	250.464310	654.186157	1205.759766	260.646698	941.261719	1239.666992	317.349182	798.904419	731.803284	482.592468	830.091248	466.780548	406.478546	748.144653	289.710876	452.330597	706.821350	77.077789	343.441742	667.082703	64.904640	286.276062	844.982605	47.273727	364.228790	857.160706	689.684753	14.392924	973.569519	492.308136	74.791931	904.923950	373.572052	22.418848	790.091797	138.445847	107.609421	739.317261	137.487015	163.260345	910.448242	61.858227	111.916298
1116	11.15000000	758.102539	1436.785767	498.994202	815.128967	1494.021851	145.792679	750.435913	1524.774902	321.473389	900.970215	1402.690186	325.351440	759.353210	1110.911377	592.693665	781.882080	1201.909180	-20.662756	863.417755	879.769104	558.647034	896.490509	965.584534	2.084942	834.713684	928.178894	406.612213	850.485046	925.608215	114.466278	640.873596	958.337524	304.878204	646.009888	945.976624	196.990646	643.441742	952.157074	250.934425	656.433228	1205.577515	260.603851	943.563293	1239.253418	317.059387	800.868713	731.844788	483.065979	830.676147	466.579834	406.804657	748.397888	289.542297	452.540283	706.829590	77.031631	343.462219	667.070374	64.919815	286.312958	844.962708	47.274048	364.258698	858.861938	689.263062	14.985398	976.735535	492.753296	76.126480	911.197632	372.432007	23.386173	806.574158	132.001480	108.417381	755.974365	128.767471	164.426376	930.011902	60.683826	111.589333
1117	11.16000000	760.809875	1436.920166	498.471069	817.526611	1493.446045	145.040726	753.062317	1524.614380	320.771790	903.477539	1402.361084	324.724243	761.936340	1111.148926	592.525635	783.526428	1200.805664	-20.459776	865.438965	879.689545	558.851379	897.344269	964.082520	2.233006	836.681091	928.324890	407.137817	852.640442	924.942749	114.940781	642.900757	958.215942	305.245453	648.125977	945.625793	197.412155	645.513367	951.920868	251.328804	658.725891	1205.411865	260.460449	945.889465	1238.890747	316.712372	802.801208	731.909973	483.525146	831.180237	466.408417	407.113464	748.573669	289.398651	452.745483	706.824951	76.986565	343.481873	667.056946	64.926819	286.349213	844.936462	47.274948	364.294830	860.520935	688.750671	15.590346	979.583740	492.965057	77.564613	917.427551	371.058136	24.365219	823.017944	125.749443	109.089714	772.720337	120.314819	165.416595	949.275940	59.762909	111.258873
1118	11.17000000	763.494934	1437.120728	497.826813	819.953003	1492.885010	144.168167	755.696106	1524.487793	319.935913	905.997131	1402.077271	324.001343	764.495911	1111.462158	592.276611	785.188599	1199.711182	-20.348820	867.518524	879.721954	558.964111	898.171448	962.573730	2.343222	838.663513	928.506104	407.651978	854.911804	924.289551	115.421387	644.976868	958.114441	305.533142	650.329346	945.293640	197.757690	647.653107	951.704041	251.645416	661.065491	1205.261963	260.216705	948.241821	1238.576904	316.310608	804.699707	731.991516	483.970917	831.617737	466.261780	407.406891	748.686035	289.277313	452.946106	706.809387	76.944130	343.501343	667.043335	64.927177	286.385071	844.904358	47.276272	364.336761	862.121033	688.132874	16.211292	982.141235	492.950531	79.095718	923.608765	369.478271	25.349897	839.302795	119.774841	109.626114	789.426514	112.219864	166.230652	968.102661	59.125546	110.923477
